<?xml version="1.0" encoding="UTF-8"?>
<svg id="Livello_1" data-name="Livello 1" xmlns="http://www.w3.org/2000/svg" xmlns:xlink="http://www.w3.org/1999/xlink" viewBox="0 0 615.1828 128.2574">
  <defs>
    <linearGradient id="Sfumatura_senza_nome_3" data-name="Sfumatura senza nome 3" x1="212.5402" y1="64.4947" x2="144.9958" y2="45.3637" gradientTransform="translate(60.1909 11.6468) rotate(-3.7415)" gradientUnits="userSpaceOnUse">
      <stop offset="0" stop-color="#0c2"/>
      <stop offset=".1315" stop-color="#00c520"/>
      <stop offset=".3167" stop-color="#00b31d"/>
      <stop offset=".5336" stop-color="#009417"/>
      <stop offset=".7725" stop-color="#006b0f"/>
      <stop offset="1" stop-color="#003d06"/>
    </linearGradient>
    <linearGradient id="Sfumatura_senza_nome_3-2" data-name="Sfumatura senza nome 3" x1="202.1699" y1="81.0849" x2="134.7214" y2="61.981" xlink:href="#Sfumatura_senza_nome_3"/>
    <linearGradient id="Sfumatura_senza_nome_3-3" data-name="Sfumatura senza nome 3" x1="125.4342" y1="35.1223" x2="215.8118" y2="35.1223" xlink:href="#Sfumatura_senza_nome_3"/>
    <linearGradient id="Sfumatura_senza_nome_3-4" data-name="Sfumatura senza nome 3" x1="127.4905" y1="88.4087" x2="217.8687" y2="88.4087" xlink:href="#Sfumatura_senza_nome_3"/>
    <linearGradient id="Sfumatura_senza_nome_3-5" data-name="Sfumatura senza nome 3" x1="-9.4821" y1="59.2956" x2="617.8925" y2="52.1966" gradientTransform="matrix(1, 0, 0, 1, 0, 0)" xlink:href="#Sfumatura_senza_nome_3"/>
    <linearGradient id="Sfumatura_senza_nome_3-6" data-name="Sfumatura senza nome 3" x1="-9.2838" y1="76.8188" x2="618.0908" y2="69.7198" gradientTransform="matrix(1, 0, 0, 1, 0, 0)" xlink:href="#Sfumatura_senza_nome_3"/>
    <linearGradient id="Sfumatura_senza_nome_3-7" data-name="Sfumatura senza nome 3" x1="-9.4706" y1="60.3094" x2="617.904" y2="53.2104" gradientTransform="matrix(1, 0, 0, 1, 0, 0)" xlink:href="#Sfumatura_senza_nome_3"/>
    <linearGradient id="Sfumatura_senza_nome_3-8" data-name="Sfumatura senza nome 3" x1="-9.4282" y1="64.0535" x2="617.9463" y2="56.9545" gradientTransform="matrix(1, 0, 0, 1, 0, 0)" xlink:href="#Sfumatura_senza_nome_3"/>
    <linearGradient id="Sfumatura_senza_nome_3-9" data-name="Sfumatura senza nome 3" x1="-9.4107" y1="65.6047" x2="617.9639" y2="58.5057" gradientTransform="matrix(1, 0, 0, 1, 0, 0)" xlink:href="#Sfumatura_senza_nome_3"/>
    <linearGradient id="Sfumatura_senza_nome_3-10" data-name="Sfumatura senza nome 3" x1="-9.3241" y1="73.2537" x2="618.0504" y2="66.1547" gradientTransform="matrix(1, 0, 0, 1, 0, 0)" xlink:href="#Sfumatura_senza_nome_3"/>
    <linearGradient id="Sfumatura_senza_nome_3-11" data-name="Sfumatura senza nome 3" x1="-9.3119" y1="74.3298" x2="618.0626" y2="67.2308" gradientTransform="matrix(1, 0, 0, 1, 0, 0)" xlink:href="#Sfumatura_senza_nome_3"/>
    <linearGradient id="Sfumatura_senza_nome_3-12" data-name="Sfumatura senza nome 3" x1="-9.305" y1="74.9477" x2="618.0696" y2="67.8487" gradientTransform="matrix(1, 0, 0, 1, 0, 0)" xlink:href="#Sfumatura_senza_nome_3"/>
    <linearGradient id="Sfumatura_senza_nome_3-13" data-name="Sfumatura senza nome 3" x1="-9.3031" y1="75.1113" x2="618.0714" y2="68.0123" gradientTransform="matrix(1, 0, 0, 1, 0, 0)" xlink:href="#Sfumatura_senza_nome_3"/>
    <linearGradient id="Sfumatura_senza_nome_3-14" data-name="Sfumatura senza nome 3" x1="-9.2887" y1="76.3869" x2="618.0859" y2="69.2879" gradientTransform="matrix(1, 0, 0, 1, 0, 0)" xlink:href="#Sfumatura_senza_nome_3"/>
    <linearGradient id="Sfumatura_senza_nome_3-15" data-name="Sfumatura senza nome 3" x1="-9.2902" y1="76.2538" x2="618.0844" y2="69.1548" gradientTransform="matrix(1, 0, 0, 1, 0, 0)" xlink:href="#Sfumatura_senza_nome_3"/>
    <linearGradient id="Sfumatura_senza_nome_3-16" data-name="Sfumatura senza nome 3" x1="-9.478" y1="59.6521" x2="617.8965" y2="52.5531" gradientTransform="matrix(1, 0, 0, 1, 0, 0)" xlink:href="#Sfumatura_senza_nome_3"/>
  </defs>
  <g id="logoMark">
    <a xlink:href="adient">
      <path id="logoMark__PathItem_" data-name="logoMark &amp;lt;PathItem&amp;gt;" d="M273.1178,51.7545c-6.8658-7.1511-17.3918-8.8924-28.5423-5.7934l-11.0809,3.0602c-5.0142,1.3932-9.3801-1.612-9.7339-6.6987-.3538-5.0866,3.4365-10.3563,8.4507-11.7495,0,0-11.0417,3.0683-17.28,4.802-1.2443,3.1563-1.8479,6.5211-1.6163,9.8508,.7603,10.9297,9.9797,15.0299,20.7528,12.0369l7.5988-2.0926c25.5621-7.103,32.4837,14.9515,27.7235,27.5383,9.2397-7.7155,11.5789-21.0745,3.7276-30.9541Z" style="fill: url(#Sfumatura_senza_nome_3);"/>
    </a>
    <a xlink:href="adient">
      <path id="logoMark__PathItem_-2" data-name="logoMark &amp;lt;PathItem&amp;gt;" d="M238.119,66.5684l-11.0805,3.0612c-11.6483,3.2364-30.0438-2.3236-28.3976-25.2235-6.6665,7.8694-7.6678,19.2867-.7445,27.9981,7.0664,6.3989,17.3997,8.8885,28.5548,5.7893l11.0807-3.0604c5.0131-1.393,9.3799,1.611,9.7338,6.6975,.3538,5.0866-3.4373,10.3588-8.4504,11.7518,.2131-.06,10.9398-3.0404,17.1385-4.7621,5.4302-17.3878-5.0585-25.8015-17.8346-22.2521Z" style="fill: url(#Sfumatura_senza_nome_3-2);"/>
    </a>
    <path id="logoMark__CompoundPathItem_" data-name="logoMark &amp;lt;CompoundPathItem&amp;gt;" d="M239.5829,1.3276l-18.1294,5.0189c-19.5268,5.425-34.2919,25.9552-32.914,45.7635,.5907,8.4922,4.0538,15.4941,9.3568,20.2941-10.1558-12.7797-3.272-31.3869,13.5576-36.0628,3.6746-1.0216,20.7575-5.7683,20.7575-5.7683l.3289-.0734c5.0131-1.393,9.3803,1.6109,9.7341,6.6974l35.2201-9.7861c-1.3778-19.8084-18.3849-31.5097-37.9116-26.0834Zm13.1052,26.7921c-3.6204-9.1457-13.8922-8.9591-19.6171-7.3675l-1.2607,.331-20.7588,5.7684c-2.6035,.723-5.1008,1.725-7.457,2.9669,4.4123-6.6936,11.0914-11.9909,18.7669-14.1239l18.1306-5.0191c9.7179-2.7001,21.5833,1.5523,25.2269,13.8238l-13.0309,3.6203Z" style="fill: url(#Sfumatura_senza_nome_3-3);"/>
    <path id="logoMark__CompoundPathItem_-2" data-name="logoMark &amp;lt;CompoundPathItem&amp;gt;" d="M273.1178,51.7545c10.1557,12.7797,3.2715,31.3869-13.5577,36.0629-3.6746,1.0216-20.7576,5.7683-20.7576,5.7683l-.3288,.0733c-5.0132,1.3932-9.3803-1.6108-9.7341-6.6973l-35.2207,9.7862c1.3778,19.8083,18.3855,31.5095,37.9122,26.0833l18.1293-5.0188c19.527-5.4251,34.2921-25.9553,32.9142-45.7637-.5907-8.4921-4.054-15.4941-9.3568-20.2942Zm-24.2126,56.6389l-18.1293,5.019c-9.718,2.7001-21.5845-1.5524-25.2282-13.8237l13.031-3.6205c3.6204,9.1459,13.8923,8.9594,19.6184,7.3686l1.2606-.3321,20.7576-5.7685c2.6035-.7228,5.1021-1.7238,7.4569-2.9668-4.4109,6.6948-11.09,11.991-18.7669,14.124Z" style="fill: url(#Sfumatura_senza_nome_3-4);"/>
  </g>
  <path id="fullLogo" d="M29.3936,30.1671v-12.4928h12.3789v12.4928h-12.3789Zm0,69.7299V40.0469h12.3789v59.8501h-12.3789Z" style="fill: url(#Sfumatura_senza_nome_3-5);"/>
  <path id="fullLogo-2" data-name="fullLogo" d="M63.349,121.5888c-2.8015,0-5.3376-.6253-7.6091-1.8745-2.2707-1.2492-4.0507-3.0099-5.3376-5.2807-1.2884-2.2707-1.9307-4.846-1.9307-7.7229,0-3.1045,.8131-5.7537,2.4422-7.9491,1.6269-2.1953,3.6515-3.8984,6.0753-5.1106-1.8169-.9831-3.2361-2.3092-4.2584-3.9753-1.0223-1.6646-1.533-3.5199-1.533-5.5645,0-2.4984,.7946-4.6938,2.3846-6.586s3.7476-3.1799,6.4737-3.8614c-2.4245-1.7415-4.2591-3.9368-5.5083-6.5875-1.2492-2.6492-1.8738-5.5645-1.8738-8.7444,0-3.9354,.7754-7.3622,2.3284-10.2775,1.5508-2.9138,3.8415-5.2053,6.8706-6.8714,3.0269-1.6646,6.7376-2.4984,11.1297-2.4984,1.7408,0,3.3677,.1523,4.883,.4539,1.5138,.3038,2.8761,.7577,4.0884,1.363,1.7408-1.1361,3.0838-2.63,4.0315-4.486,.9461-1.8546,1.533-3.8792,1.7607-6.076h10.5613c0,2.8022-.4369,5.1868-1.3061,7.1552-.8715,1.9692-2.0438,3.5769-3.5207,4.8261-1.4761,1.2492-3.1991,2.1776-5.1668,2.7822,1.6646,1.6676,2.9138,3.6545,3.7476,5.9622,.8323,2.3107,1.2492,4.8268,1.2492,7.5529,0,3.7875-.7384,7.1552-2.2146,10.1075-1.4761,2.9523-3.6537,5.2629-6.5299,6.9275-2.8783,1.6661-6.399,2.4984-10.562,2.4984h-6.246c-1.59,0-2.8392,.3607-3.7476,1.0792-.9084,.72-1.363,1.8731-1.363,3.4638,0,1.363,.4916,2.4422,1.4769,3.2361,.9831,.7954,2.2707,1.193,3.8607,1.193h15.6727c4.6169,0,8.1945,1.5523,10.7313,4.6568,2.5361,3.1045,3.8045,7.0029,3.8045,11.6967,0,3.4076-.72,6.5106-2.1576,9.3121-1.4392,2.8-3.5207,5.0338-6.246,6.7013-2.7253,1.6631-6.0191,2.4984-9.8798,2.4984h-16.5811Zm4.0884-8.9721h11.2428c1.4377,0,2.7261-.3415,3.8614-1.023,1.1361-.6815,2.0054-1.6084,2.6122-2.7822,.6054-1.1738,.9084-2.4807,.9084-3.9176,0-2.3476-.5876-4.2015-1.76-5.5645-1.1753-1.363-2.783-2.0446-4.8268-2.0446h-12.0382c-1.9692,0-3.5968,.7007-4.883,2.1007-1.2884,1.4-1.9307,3.2376-1.9307,5.5083s.6246,4.1261,1.8738,5.5645c1.2492,1.437,2.8961,2.1584,4.9399,2.1584Zm5.5652-43.6098c2.8,0,4.883-.8885,6.246-2.6684,1.3623-1.7785,2.0438-4.4868,2.0438-8.1206,0-3.5584-.6815-6.246-2.0438-8.0629-1.363-1.8169-3.446-2.7261-6.246-2.7261-2.7261,0-4.7699,.9092-6.1329,2.7261-1.363,1.8169-2.0438,4.5045-2.0438,8.0629,0,2.3476,.3016,4.336,.9084,5.9622,.6046,1.6291,1.5131,2.8399,2.7253,3.6338,1.21,.7954,2.7253,1.193,4.543,1.193Z" style="fill: url(#Sfumatura_senza_nome_3-6);"/>
  <path id="fullLogo-3" data-name="fullLogo" d="M104.6873,99.897V17.6743h12.3789v28.9593h.5677c.9831-1.74,2.1576-3.1977,3.5207-4.3715,1.363-1.1738,2.9138-2.0623,4.6561-2.6692,1.7408-.6054,3.6345-.9084,5.6783-.9084,3.0277,0,5.6022,.5869,7.7229,1.76,2.1185,1.1745,3.7277,3.0092,4.8261,5.5076,1.0969,2.4984,1.6469,5.7922,1.6469,9.8813v44.0636h-12.3789V58.8995c0-1.437-.1331-2.7054-.3969-3.8053-.2668-1.0955-.6815-2.0046-1.2492-2.7246-.5684-.7185-1.2884-1.2669-2.1584-1.6469-.8707-.3785-1.9122-.5677-3.123-.5677-1.893,0-3.5399,.5677-4.9399,1.7031-1.4015,1.1354-2.4807,2.8015-3.2368,4.9968-.7577,2.1968-1.1354,4.9229-1.1354,8.1767v34.8653h-12.3789Z" style="fill: url(#Sfumatura_senza_nome_3-7);"/>
  <path id="fullLogo-4" data-name="fullLogo" d="M169.532,101.26c-3.0291,0-5.3767-.6076-7.0406-1.8169-1.6668-1.2108-2.8214-2.8769-3.4638-4.9968-.6446-2.1199-.9654-4.4291-.9654-6.9275V50.3813h-5.4514v-10.3344h5.6783l2.1576-17.1481h9.8805v17.1481h7.9491v10.3344h-7.9491v35.6607c0,1.6661,.2639,2.8961,.7946,3.6914,.5292,.7939,1.4761,1.1915,2.8392,1.1915h4.3153v8.6321c-.9084,.3031-1.8738,.5854-2.8953,.8515-1.0223,.2646-2.0268,.4716-3.0099,.6239-.9846,.1508-1.9307,.2277-2.8392,.2277Z" style="fill: url(#Sfumatura_senza_nome_3-8);"/>
  <path id="fullLogo-5" data-name="fullLogo" d="M306.6304,101.26c-3.0291,0-5.3767-.6076-7.0406-1.8169-1.6668-1.2108-2.8214-2.8769-3.4638-4.9968-.6446-2.1199-.9654-4.4291-.9654-6.9275V50.3813h-5.4514v-10.3344h5.6783l2.1576-17.1481h9.8805v17.1481h7.9491v10.3344h-7.9491v35.6607c0,1.6661,.2639,2.8961,.7946,3.6914,.5292,.7939,1.4761,1.1915,2.8392,1.1915h4.3153v8.6321c-.9084,.3031-1.8738,.5854-2.8953,.8515-1.0223,.2646-2.0268,.4716-3.0099,.6239-.9846,.1508-1.9307,.2277-2.8392,.2277Z" style="fill: url(#Sfumatura_senza_nome_3-9);"/>
  <path id="fullLogo-6" data-name="fullLogo" d="M323.4369,99.897V40.0469h10.3344l.9092,8.5175h.5677c.6815-2.0431,1.5131-3.7846,2.4984-5.223,.9831-1.4384,2.1754-2.5738,3.5769-3.4076,1.4-.8323,2.9707-1.2492,4.713-1.2492,.7562,0,1.4769,.0761,2.1584,.2269,.6808,.1523,1.2862,.3408,1.8169,.5677v12.6066h-4.2022c-1.59,0-3.0092,.3223-4.2584,.9654-1.2492,.6431-2.3107,1.5892-3.1799,2.8384-.8715,1.2492-1.5153,2.8783-1.9307,4.8845-.4169,2.0061-.6246,4.3715-.6246,7.0975v32.0254h-12.3789Z" style="fill: url(#Sfumatura_senza_nome_3-10);"/>
  <path id="fullLogo-7" data-name="fullLogo" d="M375.5635,101.26c-5.2245,0-9.4821-1.0615-12.7766-3.1799-3.293-2.1185-5.7352-5.4891-7.3245-10.1075-1.59-4.6169-2.3853-10.5983-2.3853-17.9442,0-7.5691,.8131-13.6451,2.4415-18.2265,1.6277-4.5799,4.1453-7.9106,7.5521-9.9936,3.4083-2.0823,7.7236-3.1237,12.9466-3.1237,4.6938,0,8.6114,.9469,11.7543,2.8384,3.1415,1.8938,5.4891,4.9806,7.0414,9.2559,1.5508,4.2783,2.3284,10.0897,2.3284,17.4327v4.6568h-31.2316c0,4.1645,.3016,7.5913,.9092,10.2775,.6046,2.6891,1.607,4.6952,3.0099,6.0198,1.4,1.3246,3.3499,1.9869,5.8483,1.9869,1.363,0,2.593-.2277,3.6914-.6815,1.0955-.4539,2.0239-1.1531,2.7822-2.1007,.7554-.9461,1.3616-2.1953,1.8169-3.7476,.4539-1.5508,.6815-3.3884,.6815-5.5083h12.2644c0,3.7107-.4938,6.966-1.4769,9.7674-.9846,2.8015-2.4038,5.1092-4.2576,6.9261-1.8568,1.8184-4.0891,3.1799-6.7013,4.0891-2.6108,.9092-5.5837,1.363-8.9144,1.363Zm-9.6536-36.4546h18.2842c0-2.8769-.1523-5.3191-.4539-7.3252-.3031-2.0061-.7776-3.653-1.4192-4.9406-.6446-1.2862-1.5153-2.2146-2.6122-2.7822-1.0984-.5677-2.4038-.8515-3.9176-.8515-2.3476,0-4.2222,.6061-5.6222,1.8169-1.4015,1.2122-2.423,2.9922-3.0661,5.3383-.6446,2.3476-1.0422,5.2629-1.193,8.7444Z" style="fill: url(#Sfumatura_senza_nome_3-11);"/>
  <path id="fullLogo-8" data-name="fullLogo" d="M419.3994,101.26c-1.9692,0-3.8614-.3031-5.6783-.9092-1.8169-.6046-3.446-1.5508-4.883-2.8384-1.4384-1.2862-2.5753-2.9715-3.4061-5.0545-.8353-2.0815-1.2492-4.6361-1.2492-7.6652,0-3.3307,.6046-6.2638,1.8169-8.8021,1.2093-2.5354,3.0084-4.6731,5.3945-6.416,2.3846-1.74,5.4507-3.0661,9.1983-3.9753,3.7476-.9077,8.1206-1.3616,13.1174-1.3616v-6.9275c0-1.7415-.2469-3.2184-.7392-4.4306-.4923-1.2093-1.2684-2.1746-2.3284-2.8946s-2.4984-1.0792-4.3153-1.0792c-2.1199,0-3.7668,.3799-4.9392,1.1354-1.1753,.7569-1.9499,1.743-2.3284,2.9523-.3799,1.2122-.5677,2.5753-.5677,4.0891v1.1354h-11.8105c-.0769-.377-.1138-.7377-.1138-1.0792v-1.1915c0-3.9368,.8693-7.1729,2.6122-9.7098,1.74-2.5368,4.1246-4.4291,7.1537-5.6791,3.0277-1.2492,6.5106-1.8738,10.449-1.8738,4.0122,0,7.4553,.6246,10.3336,1.8738,2.8769,1.2499,5.0914,3.2561,6.6437,6.0191,1.5508,2.7645,2.3284,6.4559,2.3284,11.0728v29.4132c0,1.2891,.3016,2.2545,.9092,2.8961,.6046,.6446,1.4,.9654,2.3846,.9654h3.0661v8.4044c-1.0615,.4539-2.2914,.8693-3.6914,1.2492-1.4015,.3785-2.9345,.5677-4.5991,.5677-1.8169,0-3.3898-.34-4.713-1.0215-1.3261-.6815-2.3668-1.6277-3.1237-2.8399-.7569-1.2093-1.2492-2.5723-1.4754-4.0876h-.5677c-.9846,1.5153-2.1584,2.8783-3.5214,4.0876-1.363,1.2122-2.9715,2.1776-4.8268,2.8961-1.8553,.7185-4.0315,1.0792-6.5299,1.0792Zm4.3153-10.3351c1.4384,0,2.763-.3016,3.9753-.9077,1.2108-.6061,2.2722-1.4946,3.1799-2.6699,.9092-1.1723,1.6084-2.5915,2.1007-4.2576,.4923-1.6646,.7392-3.5584,.7392-5.6783v-4.9968c-3.9383,0-7.1375,.4169-9.5974,1.2492-2.46,.8338-4.2576,2.0431-5.3945,3.6338-1.1354,1.5892-1.7031,3.5199-1.7031,5.7922,0,1.6661,.2454,3.0853,.7377,4.2576,.4923,1.1753,1.23,2.0638,2.2146,2.6699,.9831,.6061,2.2323,.9077,3.7476,.9077Z" style="fill: url(#Sfumatura_senza_nome_3-12);"/>
  <path id="fullLogo-9" data-name="fullLogo" d="M458.6924,99.897V40.0469h10.4475l.9092,7.7236h.5677c1.0585-2.0446,2.2707-3.7284,3.6338-5.0545,1.363-1.3239,2.9138-2.3284,4.6553-3.0099s3.6353-1.0215,5.6783-1.0215c3.1799,0,5.8291,.72,7.9505,2.1576,2.1185,1.4392,3.6338,3.7483,4.543,6.9283h.5677c1.0585-2.0446,2.2707-3.7284,3.6338-5.0545,1.363-1.3239,2.9138-2.3284,4.6568-3.0099,1.74-.6815,3.6707-1.0215,5.7907-1.0215,3.0277,0,5.566,.5677,7.6091,1.7031,2.0446,1.1354,3.6146,2.9537,4.713,5.4521,1.0969,2.4984,1.6469,5.7537,1.6469,9.766v44.2913h-12.3782V58.7857c0-1.437-.1138-2.6862-.3415-3.7476-.2262-1.06-.5869-1.9485-1.0777-2.6684-.4938-.7185-1.1561-1.2669-1.9884-1.6469-.8338-.3785-1.7799-.5677-2.8384-.5677-1.8169,0-3.3706,.5677-4.6568,1.7031-1.2876,1.1354-2.29,2.8015-3.0099,4.9968-.72,2.1968-1.0777,4.9229-1.0777,8.1767v34.8653h-12.2658V58.7857c0-1.437-.1138-2.6862-.34-3.7476-.2277-1.06-.5884-1.9485-1.0792-2.6684-.4938-.7185-1.1561-1.2669-1.9869-1.6469-.8353-.3785-1.8184-.5677-2.9537-.5677-1.7415,0-3.2553,.5677-4.543,1.7031-1.2876,1.1354-2.29,2.8015-3.0084,4.9968-.7214,2.1968-1.0792,4.9229-1.0792,8.1767v34.8653h-12.3782Z" style="fill: url(#Sfumatura_senza_nome_3-13);"/>
  <path id="fullLogo-10" data-name="fullLogo" d="M557.3794,101.26c-5.223,0-9.4821-1.0615-12.7759-3.1799-3.2938-2.1185-5.7345-5.4891-7.3252-10.1075-1.5892-4.6169-2.3846-10.5983-2.3846-17.9442,0-7.5691,.8131-13.6451,2.4422-18.2265,1.6262-4.5799,4.1453-7.9106,7.5514-9.9936,3.4076-2.0823,7.7229-3.1237,12.9474-3.1237,4.6923,0,8.6114,.9469,11.7529,2.8384,3.1415,1.8938,5.4891,4.9806,7.0414,9.2559,1.5508,4.2783,2.3284,10.0897,2.3284,17.4327v4.6568h-31.2301c0,4.1645,.3016,7.5913,.9077,10.2775,.6061,2.6891,1.6084,4.6952,3.0099,6.0198,1.4,1.3246,3.3499,1.9869,5.8483,1.9869,1.363,0,2.593-.2277,3.6914-.6815,1.0969-.4539,2.0239-1.1531,2.7822-2.1007,.7554-.9461,1.363-2.1953,1.8169-3.7476,.4539-1.5508,.6815-3.3884,.6815-5.5083h12.2644c0,3.7107-.4923,6.966-1.4754,9.7674-.9846,2.8015-2.4053,5.1092-4.2591,6.9261-1.8568,1.8184-4.0876,3.1799-6.6999,4.0891-2.6122,.9092-5.5852,1.363-8.9159,1.363Zm-9.6521-36.4546h18.2842c0-2.8769-.1537-5.3191-.4553-7.3252-.3031-2.0061-.7761-3.653-1.4192-4.9406-.6446-1.2862-1.5153-2.2146-2.6122-2.7822-1.0984-.5677-2.4038-.8515-3.9176-.8515-2.3476,0-4.2222,.6061-5.6222,1.8169-1.4015,1.2122-2.423,2.9922-3.0661,5.3383-.6431,2.3476-1.0408,5.2629-1.1915,8.7444Z" style="fill: url(#Sfumatura_senza_nome_3-14);"/>
  <path id="fullLogo-11" data-name="fullLogo" d="M588.6095,99.897V40.0469h10.3336l.9092,8.5175h.5677c.6815-2.0431,1.5138-3.7846,2.4984-5.223,.9831-1.4384,2.1746-2.5738,3.5776-3.4076,1.4-.8323,2.97-1.2492,4.713-1.2492,.7554,0,1.4754,.0761,2.1569,.2269,.6815,.1523,1.2876,.3408,1.8169,.5677v12.6066h-4.2015c-1.5892,0-3.0099,.3223-4.2591,.9654s-2.3092,1.5892-3.1799,2.8384-1.5153,2.8783-1.9307,4.8845c-.4169,2.0061-.6239,4.3715-.6239,7.0975v32.0254h-12.3782Z" style="fill: url(#Sfumatura_senza_nome_3-15);"/>
  <path id="fullLogo-12" data-name="fullLogo" d="M0,87.0524V17.6743H11.8708V85.3893c0,1.6684,.3027,3.5779,1.662,4.7063,1.0891,.9041,2.5775,1.0619,3.941,1.0655,.4295,.0011,4.4616-.322,4.4606-.3987l.1189,8.8401c-2.7231,.9466-5.8017,1.6576-8.4059,1.6576-7.1038,0-13.6473-4.6174-13.6473-14.2076Z" style="fill: url(#Sfumatura_senza_nome_3-16);"/>
</svg>